<?xml version="1.0" encoding="UTF-8"?>
<svg width="1068px" height="470px" viewBox="0 0 1068 470" version="1.1" xmlns="http://www.w3.org/2000/svg" xmlns:xlink="http://www.w3.org/1999/xlink">
    <title>Powertry</title>
    <defs>
        <filter x="-4.0%" y="-5.1%" width="107.8%" height="110.1%" filterUnits="objectBoundingBox" id="filter-1">
            <feOffset dx="0" dy="8" in="SourceAlpha" result="shadowOffsetOuter1"></feOffset>
            <feGaussianBlur stdDeviation="1.5" in="shadowOffsetOuter1" result="shadowBlurOuter1"></feGaussianBlur>
            <feColorMatrix values="0 0 0 0 0   0 0 0 0 0   0 0 0 0 0  0 0 0 0.5 0" type="matrix" in="shadowBlurOuter1" result="shadowMatrixOuter1"></feColorMatrix>
            <feMerge>
                <feMergeNode in="shadowMatrixOuter1"></feMergeNode>
                <feMergeNode in="SourceGraphic"></feMergeNode>
            </feMerge>
        </filter>
    </defs>
    <g id="Powertry" stroke="none" stroke-width="1" fill="none" fill-rule="evenodd">
        <g id="img_powertry" filter="url(#filter-1)" transform="translate(167.028871, 20.075717)" stroke="#000000">
            <path d="M0,190.432726 L12.0888652,261.312691 L42.4996603,296.610985 L87.4325366,319.122517 L99.1217658,332.084404 L132.170483,352.528379 L139.441669,336.291455 L171.534661,352.528379 L171.534661,373.945667 C179.504915,377.906521 186.253007,380.33025 191.778936,381.216853 C197.304865,382.103456 205.663137,382.103456 216.853753,381.216853 C268.306616,408.914665 300.328263,424.034207 312.918694,426.575478 C331.804341,430.387385 344.37552,422.082993 356.21816,409.346372 C364.113254,400.855292 368.556756,390.519213 369.548669,378.338136 L368.047099,331.443997 L378.710414,314.563424 L376.286685,291.133764 L328.996577,331.443997 C326.243307,333.162963 323.3325,334.022446 320.264158,334.022446 C317.195815,334.022446 312.214381,333.162963 305.319855,331.443997 L191.778936,283.862577 L181.229576,266.733593 L102.026287,231.474493 L89.8562654,231.474493 L0,190.432726 Z" id="Path-9"></path>
            <path d="M6.88578028,238.244175 L64.5477797,268.714811 C65.1420449,255.51347 66.7578642,246.97241 69.3952373,243.091632 C72.0326105,239.210854 78.8529532,236.954294 89.8562654,236.321951 L191.778936,283.862577 C201.446595,292.470111 208.498856,300.297764 212.935718,307.345536 C219.591011,317.917193 222.523385,320.075856 224.59801,327.293418 C225.981094,332.105126 228.476525,339.204469 232.084305,348.591447 L257.410378,358.286362 L257.410378,336.759883 L272.599516,343.743989 L272.599516,373.49092 C289.807844,380.755213 303.223098,384.72629 312.845276,385.40415 C327.278545,386.420941 334.076696,383.119618 343.340464,378.132964 C355.91564,371.363791 364.04379,363.132438 367.724915,353.438905" id="Path-10"></path>
            <path d="M12.0888652,261.312691 L58.5987385,282.882421 L77.4893467,272.097556 C79.7490599,266.97515 84.7245649,264.188104 92.4158618,263.73642 C100.107159,263.284736 108.88877,265.263872 118.760695,269.673827 L118.760695,261.312691 L157.472398,280.458693 L159.896126,289.546223 L177.921396,299.268193 C188.34302,306.554136 195.677429,315.456036 199.924625,325.973895 C204.17182,336.491754 204.17182,346.560875 199.924625,356.181257 C197.060213,359.720789 193.661697,361.490555 189.729077,361.490555 C185.796456,361.490555 179.662028,359.720789 171.325792,356.181257 L171.325792,376.293284 C181.236285,380.613913 188.86191,383.063012 194.202665,383.640582 C199.54342,384.218152 207.093783,383.410242 216.853753,381.216853 L221.837991,356.181257 C221.522254,347.605929 219.860842,340.394353 216.853753,334.546528 C213.846665,328.698703 208.203622,320.134324 199.924625,308.853393 L171.325792,282.882421 L111.791458,254.502722 C102.846816,252.030091 95.580375,251.222181 89.992133,252.078993 C84.4038911,252.935805 75.92244,258.481077 64.5477797,268.714811" id="Path-11"></path>
            <path d="M92.4158618,263.73642 C88.1574105,265.240213 86.0281849,268.991224 86.0281849,274.989454 C86.0281849,283.986798 86.621753,293.837447 97.2633195,310.346666 C104.357697,321.352812 113.86401,328.063805 125.782259,330.479646 L134.269278,325.705865 L178.435735,349.308466 L171.325792,356.181257" id="Path-12"></path>
            <path d="M109.029847,267.157864 C107.425579,276.706263 107.425579,283.957452 109.029847,288.911432 C110.634114,293.865412 114.884549,299.739571 121.781151,306.53391 L202.003296,344.730991" id="Path-13"></path>
            <polyline id="Path-14" points="256.624252 363.347555 256.624252 383.821162 271.191648 391.166661 272.599516 373.49092"></polyline>
            <path d="M132.23196,279.092284 L178.435735,301.343037 L173.594829,309.958839 C156.423312,303.52634 145.253692,298.381914 140.085969,294.525561 C134.918246,290.669209 132.300243,285.524783 132.23196,279.092284 Z" id="Path-15"></path>
            <path d="M235.463949,213.991963 C244.060444,207.193631 258.863396,200.85897 277.446974,205.833432 C296.030552,210.807894 300.062216,220.905159 296.856765,232.37198 C293.651315,243.838802 277.446974,249.324521 267.035613,249.324521 C256.624252,249.324521 240.366767,246.927482 233.61711,238.74568 C226.867454,230.563878 226.867454,220.790295 235.463949,213.991963 Z" id="Path-16"></path>
            <path d="M214.988259,232.416378 C211.124129,222.371332 214.911146,211.746642 221.837991,204.053586 C228.764835,196.360529 245.266582,187.70555 271.883071,188.321217 C298.499559,188.936884 311.703703,201.515718 317.214704,210.998432 C322.725706,220.481146 321.338177,232.307652 308.321863,242.14728 C295.30555,251.986907 282.43636,254.818249 268.156421,256.595708 C253.876482,258.373167 236.208206,251.74825 231.188564,249.324521 C226.168923,246.900793 218.85239,242.461424 214.988259,232.416378 Z" id="Path-17"></path>
            <path d="M219.682437,233.721651 C215.974202,225.389418 219.612514,217.134884 225.893417,210.05938 C232.17432,202.983876 247.137246,195.023665 271.271694,195.589911 C295.406142,196.156156 304.162865,205.7785 309.159954,214.5 C314.157044,223.2215 310.469517,236.070319 301.888768,242.671415 C293.308019,249.272511 289.475535,252.939778 272.599516,254.598396 C255.723497,256.257014 242.226023,252.3203 236.618828,249.324521 C231.011632,246.328743 223.390672,242.053884 219.682437,233.721651 Z" id="Path-17-Copy"></path>
            <path d="M6.88865161e-14,188.290167 C0.125123358,183.535101 2.42038345,178.446934 6.88578028,173.025665 C11.3511771,167.604395 18.5780176,161.132141 28.5663019,153.608901 L208.400866,229.515563 C210.458665,240.752037 217.246654,248.823798 228.764835,253.730844 C240.283017,258.637891 254.894577,260.62859 272.599516,259.702941 L282.399423,263.73642 C294.721375,258.428696 304.261745,255.240549 311.020533,254.171979 C321.158715,252.569123 333.595224,254.171979 342.895224,256.595708 C349.095224,258.211527 360.225711,269.724212 376.286685,291.133764" id="Path-18"></path>
            <path d="M282.399423,263.73642 C277.463505,268.955131 274.19687,274.073752 272.599516,279.092284 C271.002163,284.110816 271.002163,289.255242 272.599516,294.525561 C275.365793,297.060256 277.812847,298.327603 279.940678,298.327603 C282.068509,298.327603 285.371417,297.060256 289.849401,294.525561 C300.660451,301.096434 310.798703,304.094813 320.264158,303.520699 C329.729612,302.946585 338.231627,298.817607 345.770201,291.133764 L352.773316,281.377721 L352.773316,263.73642" id="Path-19"></path>
            <path d="M289.849401,294.525561 C292.326737,290.331208 299.927849,286.710407 312.652737,283.663158 C325.377625,280.615909 337.896594,280.615909 350.209643,283.663158" id="Path-20"></path>
            <polyline id="Path-21" points="343.105541 254.171979 533.67974 69.0775783 289.849401 0 28.5663019 153.608901"></polyline>
            <polyline id="Path-22" points="533.67974 69.0775783 558.39434 89.8304222 558.39434 168.282819 363.232226 399.91905"></polyline>
            <polygon id="Path-23" points="450.997209 204.053586 433.715689 179.495887 460.813283 153.608901 478.253343 173.754034"></polygon>
            <line x1="376.286685" y1="291.133764" x2="558.39434" y2="89.8304222" id="Path-24"></line>
            <polyline id="Path-25" points="376.286685 317.784706 378.710414 344.730991 558.39434 139.92284"></polyline>
            <polyline id="Path-26" points="460.813283 153.608901 467.340513 171.539177 478.253343 173.754034"></polyline>
            <line x1="467.340513" y1="171.539177" x2="445.830882" y2="195.561353" id="Path-38"></line>
            <path d="M272.599516,291.133764 C291.116251,282.263611 305.296795,277.229574 315.141148,276.031652 C324.985502,274.83373 337.529557,275.853941 352.773316,279.092284" id="Path-39"></path>
        </g>
    </g>
</svg>