<?xml version="1.0" encoding="UTF-8"?>
<svg width="1068px" height="714px" viewBox="0 0 1068 714" version="1.1" xmlns="http://www.w3.org/2000/svg" xmlns:xlink="http://www.w3.org/1999/xlink">
    <title>Rx5</title>
    <defs>
        <filter x="-2.8%" y="-3.3%" width="105.5%" height="106.6%" filterUnits="objectBoundingBox" id="filter-1">
            <feOffset dx="0" dy="6" in="SourceAlpha" result="shadowOffsetOuter1"></feOffset>
            <feGaussianBlur stdDeviation="2" in="shadowOffsetOuter1" result="shadowBlurOuter1"></feGaussianBlur>
            <feColorMatrix values="0 0 0 0 0   0 0 0 0 0   0 0 0 0 0  0 0 0 0.5 0" type="matrix" in="shadowBlurOuter1" result="shadowMatrixOuter1"></feColorMatrix>
            <feMerge>
                <feMergeNode in="shadowMatrixOuter1"></feMergeNode>
                <feMergeNode in="SourceGraphic"></feMergeNode>
            </feMerge>
        </filter>
    </defs>
    <g id="Rx5" stroke="none" stroke-width="1" fill="none" fill-rule="evenodd">
        <g id="ic_rx5" filter="url(#filter-1)" transform="translate(202.000000, 52.000000)" stroke="#070707">
            <path d="M0,340.417797 C0,323.606197 49.4334534,83.4187804 65.6587787,44.7759041 C76.4756622,19.0139865 107.331391,4.08868517 158.225964,0 L566.187476,81.3329707 C613.954834,99.9465974 648.195899,118.294933 668.910674,136.377977 C699.982835,163.502542 710,185.092971 710,206.874681 C710,228.65639 604.038321,580.581325 599.003948,594.534414 C595.647699,603.836474 584.708875,607.478444 566.187476,605.460326 L21.714496,371.043796 C7.23816534,361.834197 0,351.62553 0,340.417797 Z" id="Path-2"></path>
            <path d="M0,356.503964 L37.1138491,394.461865 L577.602079,623 C598.916064,618.362863 614.742954,612.36258 625.082749,604.999151 C635.422543,597.635722 642.544624,587.29302 646.448991,573.971045 C707.991814,369.885884 740.018904,252.269249 742.530259,221.12114 C746.297291,174.398975 727.496474,156.575651 682.90935,121.756514 C653.1846,98.5437557 618.082177,80.6645178 577.602079,68.1188001 L186.062341,0 L158.459272,0" id="Path-3"></path>
            <path d="M171.314407,25 L570.400248,105.256391 C575.455236,111.963582 577.087809,117.49814 575.297966,121.860065 C573.508123,126.22199 567.807287,130.601968 558.195457,135 L171.314407,49.3930045 C164.438136,44.2927901 161,39.8767568 161,36.1449045 C161,32.4130521 164.438136,28.698084 171.314407,25 Z" id="Path-4"></path>
            <polygon id="Path-5" points="81 347.173554 508.838326 514 597 175.386711 140.02751 70"></polygon>
            <polygon id="Path-6" points="191.730263 157 173 197.748936 191.730263 204.540426 200.615114 187.804255 203.976992 208.906383 227.50985 214 218.865114 187.804255 246 172.038298 222.707219 165.489362 203.976992 179.8 212.861806 162.33617"></polygon>
            <path d="M244.296581,199.938568 C241.142804,197.174245 244.308208,191.375636 247.760495,189.007441 C251.212781,186.639246 256.845263,186.039222 260.231662,189.007441 C263.618061,191.97566 264.215432,197.205787 260.231662,199.938568 C256.247892,202.67135 247.450359,202.702892 244.296581,199.938568 Z" id="Path-7"></path>
            <path d="M355.296581,232.926188 C352.142804,230.164509 355.308208,224.371449 358.760495,222.00552 C362.212781,219.639591 367.845263,219.040141 371.231662,222.00552 C374.618061,224.970899 375.215432,231.869344 371.231662,234.599511 C367.247892,237.329678 358.450359,235.687867 355.296581,232.926188 Z" id="Path-7-Copy"></path>
            <path d="M268.943565,178.635362 C274.147985,180.107826 277.653837,183.406891 279.461121,188.532557 C282.172047,196.221056 283.459841,201.653731 279.461121,208.464366 C275.462401,215.275001 270.037187,216.996538 263.513898,218.892392 C256.990609,220.788246 252.699508,222.490678 243.580177,218.892392 C234.460845,215.294106 232.196351,211.384921 228.979544,205.265901 C225.762738,199.14688 226.604614,194.556041 230.504056,188.022045 C234.403499,181.488049 241.876742,177.134063 249.396835,175.436897 C254.41023,174.305453 260.925807,175.371608 268.943565,178.635362 Z" id="Path-8"></path>
            <path d="M384.044447,208.635362 C390.005873,210.107826 394.021668,213.406891 396.091829,218.532557 C399.197072,226.221056 400.672181,231.653731 396.091829,238.464366 C391.511477,245.275001 385.297142,246.996538 377.825011,248.892392 C370.35288,250.788246 365.437618,252.490678 354.991839,248.892392 C344.546059,245.294106 341.952183,241.384921 338.267478,235.265901 C334.582772,229.14688 335.547103,224.556041 340.013737,218.022045 C344.480371,211.488049 353.040632,207.134063 361.654556,205.436897 C367.397173,204.305453 374.86047,205.371608 384.044447,208.635362 Z" id="Path-8-Copy"></path>
            <path d="M342,203.418223 C329.931442,194.029309 320.186489,188.788553 312.76514,187.695957 C301.633118,186.057063 298.490419,187.298919 292.803589,191.567901 C287.11676,195.836884 285.756384,200.902297 288.403499,206.757386 C291.050614,212.612475 304.418739,219.379005 302.575703,220.845768 C301.347012,221.82361 294.486482,219.172951 281.994113,212.893791 L270,220.845768 C278.514298,228.404119 286.648536,233.286849 294.402715,235.493957 C306.033983,238.804618 311.995813,238.455354 319.032247,236.633771 C323.723203,235.419382 326.627446,232.621636 327.744977,228.240532 C328.159314,224.327044 327.586741,220.75233 326.027259,217.51639 C323.688037,212.66248 309.382552,206.855669 309.382552,203.418223 C309.382552,201.126592 315.50336,203.85217 327.744977,211.594957 L342,203.418223 Z" id="Path-9"></path>
            <path d="M414.752148,246.232151 C413.118011,246.232151 400.511642,260.02977 402.145814,260.02977 C403.235262,260.02977 410.122058,261.424609 422.806203,264.214286 L433.07803,252.452381 L453.388216,255.223219 L442.99969,265.684532 L465.527648,271 L475.682777,260.02977 L499.49474,264.214286 L510,255.223219 L488.639277,249.059524 C495.876252,243.706355 499.49474,241.02977 499.49474,241.02977 C499.49474,241.02977 492.296676,238.35318 477.900549,233 L467.862155,242.72619 L486.888406,249.059524 L475.682777,258.446437 L456,252.452381 L465.527648,242.72619 L445.567629,238.089294 L435.645969,249.059524 C422.806179,247.174609 415.841572,246.232151 414.752148,246.232151 Z" id="Path-10"></path>
            <polygon id="Path-11" points="250.414986 273 224 319.904878 235.118193 324 262 276.726906"></polygon>
            <polygon id="Path-12" points="265.352366 277 261.735896 282.6 270.354025 284.933333 274.284767 301.25412 257 312.125998 263.690804 332.533333 282.298044 340 306.203667 323.34021 340 301.25412 330.371552 297.913561 276.777219 332.533333 270.354025 314.504777 287.797693 303.304777 282.298044 282.6"></polygon>
            <path d="M292,287.310191 C292,288.417647 295.08285,297.31425 301.248551,314 L312,306.80151 L306.558204,292.884059 C296.852735,288.060691 292,286.202735 292,287.310191 Z" id="Path-13"></path>
            <polygon id="Path-14" points="308 327.812046 319.193038 320.71328 326.471219 344.757486 348.998975 354.604161 361.591372 347.047411 358.472156 341.780585 332.82522 333.078872 328.897291 324.005585 346.042493 313 358.472156 317.797099 343.701839 326.26982 346.042493 329.704706 366.278094 337.375945 374 356.840302 358.472156 366 314.939607 349.755446"></polygon>
            <polygon id="Path-15" points="349 312.177194 355.654965 307 386.055543 317.867047 390 325.06252 371.52392 327 375.720665 321.566468"></polygon>
            <path d="M90.1019943,63 C90.1019943,63 77,74.3414524 77,74.3414524 C77,74.3414524 79.8392626,79.227635 85.5177877,89 L86.5421594,81.3959904 L94,82.4297793 L94,72.713913 L88.2523686,71.5704035 C89.4854524,65.8568012 90.1019943,63 90.1019943,63 Z" id="Path-16"></path>
            <polyline id="Path-17" points="66 144.791425 69.2111116 126 77.365988 148 81 129.90038"></polyline>
            <path d="M65.347236,210 C70.2011724,206.873037 72.7365758,203.189656 72.953446,198.949855 C73.2787513,192.590154 71.9760678,187.377003 66.6018676,185.472021 C61.2276674,183.567038 56.8724028,187.779142 54.2908009,191.834225 C52.569733,194.537614 52.569733,198.862799 54.2908009,204.80978 L62.9163932,191.834225 L65.347236,202.298384 L58.6036029,200.372974" id="Path-18"></path>
            <polygon id="Path-19" points="44 248 48.1727244 250.738254 50.4909047 248 51.8045343 252.751682 61 255.328861 56.4408948 255.328861 52.5 260 45.5454535 256.859056 45.5454535 252.751682"></polygon>
            <path d="M39.5726496,307 L32.017094,308.442592 L31,314.933662 L41.025641,324 L46.3290653,322.261158 L48,314.933662 C45.2393199,313.999687 43.8589798,313.532699 43.8589798,313.532699 C43.8589798,313.532699 42.4302031,311.355133 39.5726496,307 Z" id="Path-20"></path>
            <polygon id="Path-21" points="647.156717 205.105592 644 215.0614 654.545469 219.309587 649.272734 233 673 217.369513 662.190875 196 658.5 208.004927"></polygon>
            <path d="M639.665586,282 C639.665586,282 655.708622,287.79604 653.850159,295.87237 C652.611184,301.256589 646.420298,303.092559 635.277501,301.380278 C633.831578,298.197077 633.613067,294.706335 634.621968,290.908052 C636.135321,285.210626 639.665586,282 639.665586,282 Z" id="Path-22"></path>
            <line x1="621" y1="295.250132" x2="632" y2="297.749868" id="Path-25-Copy"></line>
            <line x1="623" y1="283.250132" x2="634" y2="285.749868" id="Path-25-Copy-2"></line>
            <line x1="626" y1="280.250132" x2="637" y2="282.749868" id="Path-25-Copy-4"></line>
            <line x1="621" y1="288.250132" x2="632" y2="290.749868" id="Path-25-Copy-3"></line>
            <path d="M620.574452,354.127659 C626.573884,355.217133 631.118641,364.305331 629.757388,370.248789 C628.396135,376.192246 620.868908,379.893322 614.920642,378.813139 C608.972375,377.732956 603.734225,372.512254 605.271063,365.802163 C606.8079,359.092073 614.57502,353.038184 620.574452,354.127659 Z" id="Path-23"></path>
            <path d="M603,356 C600.333333,361.554627 599,365.516322 599,367.885085 C599,370.253848 599.463173,372.95882 600.38952,376" id="Path-24"></path>
            <path d="M634.599742,363 C635.133419,369.675959 635.133419,374.290195 634.599742,376.842708 C634.066065,379.395221 632.532817,382.114319 630,385" id="Path-25"></path>
            <polygon id="Path-26" points="601.064851 432 582 451.798169 606 458"></polygon>
            <path d="M558.498146,514.073763 C556.228545,520.384716 561.978021,526.753397 570.387137,529.894621 C578.796252,533.035846 589.716462,533.447545 592.543031,525.587863 C595.3696,517.728181 595.3696,507.762809 580.540609,501.661429 C565.711617,495.560048 560.767747,507.762809 558.498146,514.073763 Z" id="Path-27"></path>
        </g>
    </g>
</svg>