<?xml version="1.0" encoding="UTF-8"?>
<svg width="355px" height="270px" viewBox="0 0 355 270" version="1.1" xmlns="http://www.w3.org/2000/svg" xmlns:xlink="http://www.w3.org/1999/xlink">
    <title>Artboard Copy 2</title>
    <g id="Artboard-Copy-2" stroke="none" stroke-width="1" fill="none" fill-rule="evenodd">
        <g id="ic_rx5" transform="translate(50.706884, 35.940609)" stroke="#FFFFFF">
            <path d="M0,107.464997 C0,102.157817 15.6433174,26.334108 20.7778548,14.1351083 C24.2008797,6.0024418 33.9652381,1.29073904 50.07093,-1.42108547e-14 L179.171185,25.6756479 C194.287263,31.5517019 205.122918,37.3440072 211.678151,43.0525638 C221.511,51.6153986 224.680952,58.4311863 224.680952,65.3073584 C224.680952,72.1835305 191.149162,183.281166 189.556024,187.685955 C188.493932,190.622481 185.032319,191.772199 179.171185,191.135108 L6.87159668,117.133185 C2.29053223,114.225847 0,111.003118 0,107.464997 Z" id="Path-2"></path>
            <path d="M0,112.729349 L11.727461,124.731935 L182.514237,196.997485 C189.249161,195.531186 194.250238,193.633849 197.51747,191.305475 C200.784701,188.977102 203.03518,185.706658 204.268905,181.494145 C223.715583,116.960817 233.835699,79.7695147 234.629252,69.9202382 C235.819582,55.1463235 229.878785,49.5104487 215.789873,38.5003644 C206.397265,31.1603082 195.305386,25.506753 182.514237,21.5396987 L58.7931163,0 L50.07093,0" id="Path-3"></path>
            <path d="M54.3391911,7.59325572 L180.11627,33.0987507 C181.709415,35.230297 182.223942,36.9891804 181.65985,38.375401 C181.095757,39.7616216 179.299065,41.1535794 176.269772,42.5512747 L54.3391911,15.3453568 C52.1720451,13.7245077 51.088472,12.3210916 51.088472,11.1351083 C51.088472,9.94912496 52.1720451,8.76850744 54.3391911,7.59325572 Z" id="Path-4"></path>
            <polygon id="Path-5" points="25.5035078 109.691335 161.025937 162.45792 188.952103 55.3557958 44.2011116 22.0223709"></polygon>
            <polygon id="Path-6" points="60.6626229 49.3559698 54.7485516 62.0939696 60.6626229 64.2169696 63.4680101 58.9852911 64.5295214 65.5817553 71.9600099 67.1740052 69.2304385 58.9852911 77.7982655 54.0568983 70.4435814 52.0097198 64.5295214 56.483184 67.3348972 51.0240412"></polygon>
            <path d="M77.7982655,63.5547901 C76.8012102,62.6536055 77.8019414,60.7632275 78.8933691,59.991183 C79.9847969,59.2191385 81.7654856,59.0235273 82.8360833,59.991183 C83.9066811,60.9588387 84.0955378,62.6638883 82.8360833,63.5547901 C81.5766289,64.4456919 78.7953208,64.4559747 77.7982655,63.5547901 Z" id="Path-7"></path>
            <path d="M112.798265,73.5547901 C111.80121,72.6536055 112.801941,70.7632275 113.893369,69.991183 C114.984797,69.2191385 116.765486,69.0235273 117.836083,69.991183 C118.906681,70.9588387 119.095538,73.2099232 117.836083,74.100825 C116.576629,74.9917267 113.795321,74.4559747 112.798265,73.5547901 Z" id="Path-7-Copy"></path>
            <path d="M85.43356,56.4020008 C87.0843892,56.8623664 88.1964368,57.8938188 88.7697028,59.4963578 C89.6296018,61.9001664 90.0380869,63.5986918 88.7697028,65.7280363 C87.5013187,67.8573808 85.7804545,68.3956191 83.7112833,68.9883577 C81.6421122,69.5810962 80.2809854,70.1133615 77.3883561,68.9883577 C74.4957268,67.8633538 73.7774346,66.6411476 72.7570716,64.7280363 C71.7367085,62.8149251 72.0037495,61.3795996 73.240643,59.3367463 C74.4775365,57.2938931 76.8480308,55.9326195 79.2333857,55.4020008 C80.8236223,55.0482549 82.8903471,55.3815882 85.43356,56.4020008 Z" id="Path-8"></path>
            <path d="M121.38137,66.4020008 C123.273887,66.8623664 124.548742,67.8938188 125.205936,69.4963578 C126.191727,71.9001664 126.660016,73.5986918 125.205936,75.7280363 C123.751856,77.8573808 121.779051,78.3956191 119.406946,78.9883577 C117.034841,79.5810962 115.474441,80.1133615 112.15832,78.9883577 C108.8422,77.8633538 108.018747,76.6411476 106.848999,74.7280363 C105.679251,72.8149251 105.985388,71.3795996 107.403367,69.3367463 C108.821346,67.2938931 111.538889,65.9326195 114.273469,65.4020008 C116.096522,65.0482549 118.465822,65.3815882 121.38137,66.4020008 Z" id="Path-8-Copy"></path>
            <path d="M108.405855,64.226828 C104.618544,61.3066027 101.560419,59.6765755 99.2314791,59.3367463 C95.7380689,58.8270026 94.7518387,59.2132558 92.9672189,60.5410335 C91.1825992,61.8688112 90.7556909,63.4443021 91.5863987,65.265405 C92.4171065,67.0865079 96.6122422,69.1910953 96.0338674,69.6473012 C95.6482843,69.9514385 93.4953382,69.1270065 89.575029,67.1740052 L85.8110808,69.6473012 C88.4830063,71.9981684 91.035663,73.5168393 93.4690506,74.2033139 C97.1191321,75.2330259 98.9900516,75.1243946 101.198199,74.5578293 C102.670298,74.1801191 103.581697,73.3099386 103.932396,71.9472878 C104.062422,70.7300794 103.882739,69.6182395 103.393348,68.6117681 C102.659262,67.102061 98.1699677,65.2959737 98.1699677,64.226828 C98.1699677,63.5140642 100.090777,64.3617983 103.932396,66.7700301 L108.405855,64.226828 Z" id="Path-9"></path>
            <path d="M131.357,78.1479272 C130.845208,78.1479272 126.897044,82.6078778 127.408847,82.6078778 C127.750049,82.6078778 129.906912,83.0587462 133.879434,83.9604831 L137.096448,80.1585579 L143.457355,81.0542051 L140.203793,84.4357264 L147.259281,86.1539014 L150.439745,82.6078778 L157.897368,83.9604831 L161.18749,81.0542051 L154.497567,79.0618487 C156.764101,77.3314872 157.897368,76.4663064 157.897368,76.4663064 C157.897368,76.4663064 155.64302,75.6011238 151.134325,73.8707586 L147.99042,77.0146583 L153.949215,79.0618487 L150.439745,82.0960802 L144.275335,80.1585579 L147.259281,77.0146583 L141.008041,75.5158251 L137.900696,79.0618487 C133.879427,78.4525677 131.698195,78.1479272 131.357,78.1479272 Z" id="Path-10"></path>
            <polygon id="Path-11" points="79.3241276 86.638663 70.7256425 101.293817 74.3447855 102.573314 83.0952281 87.803113"></polygon>
            <polygon id="Path-12" points="84.2348954 88.0528189 83.0952281 89.8075535 85.8110808 90.538693 87.0497851 95.6527377 81.6027934 99.0593914 83.7112833 105.453938 89.575029 107.793584 97.1084677 102.573314 107.75879 95.6527377 104.724554 94.6059886 87.8352377 105.453938 85.8110808 99.8047711 91.3081474 96.2953018 89.575029 89.8075535"></polygon>
            <path d="M92.5049023,90.7194739 C92.5049023,91.0850418 93.4797549,94.0217843 95.4294601,99.5297015 L98.8292613,97.153501 L97.1084677,92.5593914 C94.0394241,90.9672118 92.5049023,90.353906 92.5049023,90.7194739 Z" id="Path-13"></path>
            <polygon id="Path-14" points="97.1084677 103.788661 100.650361 101.522129 102.953447 109.199093 110.082065 112.342993 114.066767 109.930233 113.079731 108.248612 104.964089 105.470282 103.721146 102.573314 109.146524 99.0593914 113.079731 100.591035 108.405855 103.296251 109.146524 104.39296 115.54982 106.842275 117.993317 113.05696 113.079731 115.981518 99.304417 110.794869"></polygon>
            <polygon id="Path-15" points="110.291302 98.4987425 112.388356 96.861621 121.96792 100.297976 123.210862 102.573314 117.388842 103.18598 118.711283 101.467799"></polygon>
            <path d="M28.7441544,19.7285988 C28.7441544,19.7285988 24.1199211,23.4244721 24.1199211,23.4244721 C24.1199211,23.4244721 25.1220138,25.0167472 27.1261991,28.2012973 L27.4877421,25.7233557 L30.1199211,26.0602396 L30.1199211,22.894101 L28.0913453,22.521462 C28.5265514,20.6595532 28.7441544,19.7285988 28.7441544,19.7285988 Z" id="Path-16"></path>
            <polyline id="Path-17" points="20.888108 45.4638847 21.9466675 39.6420214 24.6349646 46.4579491 25.8329354 40.8504171"></polyline>
            <path d="M20.888108,66.1598425 C22.4658897,65.2077531 23.2900276,64.0862468 23.3605217,62.7953233 C23.4662628,60.8589382 23.042823,59.2716517 21.2959285,58.6916276 C19.549034,58.1116035 18.1333465,59.3940939 17.2941917,60.628775 C16.7347551,61.4518957 16.7347551,62.7688167 17.2941917,64.579538 L20.0979577,60.628775 L20.888108,63.8148746 L18.6960766,63.2286307" id="Path-18"></path>
            <polygon id="Path-19" points="13.7633943 78.667309 15.1397885 79.5339275 15.904452 78.667309 16.3377593 80.171149 19.3709301 80.98679 17.8670862 80.98679 16.5671622 82.4651393 14.2731699 81.4710749 14.2731699 80.171149"></polygon>
            <path d="M12.860864,96.8663334 L10.2100307,97.3506183 L9.85318777,99.5297015 L13.3706396,102.573314 L15.2313226,101.989577 L15.8175626,99.5297015 C14.8489902,99.2161615 14.364704,99.0593914 14.364704,99.0593914 C14.364704,99.0593914 13.863424,98.3283721 12.860864,96.8663334 Z" id="Path-20"></path>
            <polygon id="Path-21" points="204.663767 65.265405 203.663767 68.3367463 207.004412 69.6473012 205.33409 73.8707586 212.850528 69.0487933 209.426361 62.4563531 208.257148 66.1598425"></polygon>
            <path d="M202.424729,89.2401455 C202.424729,89.2401455 207.515765,91.045413 206.926008,93.5609127 C206.532836,95.2379124 204.568244,95.8097539 201.032231,95.2764371 C200.573387,94.2849793 200.504045,93.1977329 200.824206,92.0146979 C201.304448,90.2401455 202.424729,89.2401455 202.424729,89.2401455 Z" id="Path-22"></path>
            <line x1="196.145471" y1="93.2401455" x2="199.705412" y2="94.0733911" id="Path-25-Copy"></line>
            <line x1="197.145471" y1="89.2401455" x2="200.705412" y2="90.0733911" id="Path-25-Copy-2"></line>
            <line x1="198.145471" y1="88.2401455" x2="201.705412" y2="89.0733911" id="Path-25-Copy-4"></line>
            <line x1="196.145471" y1="91.2401455" x2="199.705412" y2="92.0733911" id="Path-25-Copy-3"></line>
            <path d="M196.145471,112.41861 C197.961693,112.751103 199.337537,115.524704 198.925442,117.338571 C198.513347,119.152437 196.234613,120.281958 194.433881,119.9523 C192.633149,119.622642 191.047392,118.029351 191.512643,115.981518 C191.977893,113.933685 194.32925,112.086116 196.145471,112.41861 Z" id="Path-23"></path>
            <path d="M191.430583,112.37965 C190.40906,114.162557 189.898298,115.43417 189.898298,116.194489 C189.898298,116.954807 190.075726,117.823041 190.430583,118.79919" id="Path-24"></path>
            <path d="M200.705412,114.494224 C200.91193,116.570391 200.91193,118.00538 200.705412,118.79919 C200.498894,119.593 199.905571,120.438616 198.925442,121.336039" id="Path-25"></path>
            <polygon id="Path-26" points="189.898298 136.403419 183.978964 142.783999 191.430583 144.782733"></polygon>
            <path d="M177.136511,162.45792 C176.431978,164.485597 178.216739,166.53182 180.827109,167.54108 C183.437479,168.550339 186.827346,168.682616 187.704774,166.157341 C188.582201,163.632066 188.582201,160.430244 183.978964,158.469902 C179.375727,156.50956 177.841044,160.430244 177.136511,162.45792 Z" id="Path-27"></path>
        </g>
    </g>
</svg>